<?xml version="1.0" encoding="UTF-8" standalone="no"?>
<!DOCTYPE svg PUBLIC "-//W3C//DTD SVG 1.1//EN"
 "http://www.w3.org/Graphics/SVG/1.1/DTD/svg11.dtd">
<!-- Generated by graphviz version 2.47.0 (20210316.0004)
 -->
<!-- Title: dependencies Pages: 1 -->
<svg width="504pt" height="284pt"
 viewBox="0.00 0.00 504.00 284.00" xmlns="http://www.w3.org/2000/svg" xmlns:xlink="http://www.w3.org/1999/xlink">
<g id="graph0" class="graph" transform="scale(1 1) rotate(0) translate(4 280)">
<title>dependencies</title>
<polygon fill="white" stroke="transparent" points="-4,4 -4,-280 500,-280 500,4 -4,4"/>
<text text-anchor="start" x="227.01" y="-42.4" font-family="Times-12" font-weight="bold" font-size="14.00">Legend</text>
<polygon fill="#ffffb3" stroke="transparent" points="14,-10 14,-30 34,-30 34,-10 14,-10"/>
<text text-anchor="start" x="37.63" y="-15.4" font-family="Times-12" font-size="14.00"> &#160;Declarations</text>
<polygon fill="#8dd3c7" stroke="transparent" points="127,-10 127,-30 147,-30 147,-10 127,-10"/>
<text text-anchor="start" x="150.73" y="-15.4" font-family="Times-12" font-size="14.00"> &#160;Module</text>
<polygon fill="#80b1d3" stroke="transparent" points="213,-10 213,-30 233,-30 233,-10 213,-10"/>
<text text-anchor="start" x="236.78" y="-15.4" font-family="Times-12" font-size="14.00"> &#160;Bootstrap</text>
<polygon fill="#fdb462" stroke="transparent" points="310,-10 310,-30 330,-30 330,-10 310,-10"/>
<text text-anchor="start" x="333.67" y="-15.4" font-family="Times-12" font-size="14.00"> &#160;Providers</text>
<polygon fill="#fb8072" stroke="transparent" points="406,-10 406,-30 426,-30 426,-10 406,-10"/>
<text text-anchor="start" x="429.73" y="-15.4" font-family="Times-12" font-size="14.00"> &#160;Exports</text>
<g id="clust1" class="cluster">
<title>cluster_SharedModule</title>
<polygon fill="none" stroke="black" stroke-dasharray="1,5" points="10,-70 10,-268 486,-268 486,-70 10,-70"/>
</g>
<g id="clust7" class="cluster">
<title>cluster_SharedModule_exports</title>
<polygon fill="none" stroke="black" points="86,-208 86,-260 312,-260 312,-208 86,-208"/>
</g>
<g id="clust6" class="cluster">
<title>cluster_SharedModule_imports</title>
<polygon fill="none" stroke="black" points="246,-78 246,-130 478,-130 478,-78 246,-78"/>
</g>
<g id="clust2" class="cluster">
<title>cluster_SharedModule_declarations</title>
<polygon fill="none" stroke="black" points="18,-78 18,-130 238,-130 238,-78 18,-78"/>
</g>
<!-- Footer -->
<g id="node1" class="node">
<title>Footer</title>
<polygon fill="#ffffb3" stroke="black" points="230,-122 176,-122 176,-86 230,-86 230,-122"/>
<text text-anchor="middle" x="203" y="-99.8" font-family="Times,serif" font-size="14.00">Footer</text>
</g>
<!-- SharedModule -->
<g id="node4" class="node">
<title>SharedModule</title>
<polygon fill="#8dd3c7" stroke="black" points="252.42,-187 249.42,-191 228.42,-191 225.42,-187 153.58,-187 153.58,-151 252.42,-151 252.42,-187"/>
<text text-anchor="middle" x="203" y="-164.8" font-family="Times,serif" font-size="14.00">SharedModule</text>
</g>
<!-- Footer&#45;&gt;SharedModule -->
<g id="edge1" class="edge">
<title>Footer&#45;&gt;SharedModule</title>
<path fill="none" stroke="black" d="M203,-122.11C203,-122.11 203,-140.99 203,-140.99"/>
<polygon fill="black" stroke="black" points="199.5,-140.99 203,-150.99 206.5,-140.99 199.5,-140.99"/>
</g>
<!-- Login -->
<g id="node2" class="node">
<title>Login</title>
<polygon fill="#ffffb3" stroke="black" points="158,-122 104,-122 104,-86 158,-86 158,-122"/>
<text text-anchor="middle" x="131" y="-99.8" font-family="Times,serif" font-size="14.00">Login</text>
</g>
<!-- Login&#45;&gt;SharedModule -->
<g id="edge2" class="edge">
<title>Login&#45;&gt;SharedModule</title>
<path fill="none" stroke="black" d="M158.29,-104C163.31,-104 167,-104 167,-104 167,-104 167,-140.89 167,-140.89"/>
<polygon fill="black" stroke="black" points="163.5,-140.89 167,-150.89 170.5,-140.89 163.5,-140.89"/>
</g>
<!-- NavBar -->
<g id="node3" class="node">
<title>NavBar</title>
<polygon fill="#ffffb3" stroke="black" points="85.53,-122 26.47,-122 26.47,-86 85.53,-86 85.53,-122"/>
<text text-anchor="middle" x="56" y="-99.8" font-family="Times,serif" font-size="14.00">NavBar</text>
</g>
<!-- NavBar&#45;&gt;SharedModule -->
<g id="edge3" class="edge">
<title>NavBar&#45;&gt;SharedModule</title>
<path fill="none" stroke="black" d="M56,-122.11C56,-141.34 56,-169 56,-169 56,-169 143.64,-169 143.64,-169"/>
<polygon fill="black" stroke="black" points="143.64,-172.5 153.64,-169 143.64,-165.5 143.64,-172.5"/>
</g>
<!-- Footer  -->
<g id="node7" class="node">
<title>Footer </title>
<polygon fill="#fb8072" stroke="black" points="304.05,-252 247.95,-252 247.95,-216 304.05,-216 304.05,-252"/>
<text text-anchor="middle" x="276" y="-229.8" font-family="Times,serif" font-size="14.00">Footer </text>
</g>
<!-- SharedModule&#45;&gt;Footer  -->
<g id="edge6" class="edge">
<title>SharedModule&#45;&gt;Footer </title>
<path fill="none" stroke="black" stroke-dasharray="5,2" d="M238.99,-187.11C238.99,-206.34 238.99,-234 238.99,-234 238.99,-234 239.88,-234 239.88,-234"/>
<polygon fill="black" stroke="black" points="237.95,-237.5 247.95,-234 237.95,-230.5 237.95,-237.5"/>
</g>
<!-- Login  -->
<g id="node8" class="node">
<title>Login </title>
<polygon fill="#fb8072" stroke="black" points="230,-252 176,-252 176,-216 230,-216 230,-252"/>
<text text-anchor="middle" x="203" y="-229.8" font-family="Times,serif" font-size="14.00">Login </text>
</g>
<!-- SharedModule&#45;&gt;Login  -->
<g id="edge7" class="edge">
<title>SharedModule&#45;&gt;Login </title>
<path fill="none" stroke="black" stroke-dasharray="5,2" d="M203,-187.11C203,-187.11 203,-205.99 203,-205.99"/>
<polygon fill="black" stroke="black" points="199.5,-205.99 203,-215.99 206.5,-205.99 199.5,-205.99"/>
</g>
<!-- NavBar  -->
<g id="node9" class="node">
<title>NavBar </title>
<polygon fill="#fb8072" stroke="black" points="157.53,-252 94.47,-252 94.47,-216 157.53,-216 157.53,-252"/>
<text text-anchor="middle" x="126" y="-229.8" font-family="Times,serif" font-size="14.00">NavBar </text>
</g>
<!-- SharedModule&#45;&gt;NavBar  -->
<g id="edge8" class="edge">
<title>SharedModule&#45;&gt;NavBar </title>
<path fill="none" stroke="black" stroke-dasharray="5,2" d="M166.76,-187.11C166.76,-206.34 166.76,-234 166.76,-234 166.76,-234 165.85,-234 165.85,-234"/>
<polygon fill="black" stroke="black" points="167.71,-230.5 157.71,-234 167.71,-237.5 167.71,-230.5"/>
</g>
<!-- RouterLink -->
<g id="node5" class="node">
<title>RouterLink</title>
<polygon fill="#8dd3c7" stroke="black" points="470.05,-122 467.05,-126 446.05,-126 443.05,-122 389.95,-122 389.95,-86 470.05,-86 470.05,-122"/>
<text text-anchor="middle" x="430" y="-99.8" font-family="Times,serif" font-size="14.00">RouterLink</text>
</g>
<!-- RouterLink&#45;&gt;SharedModule -->
<g id="edge4" class="edge">
<title>RouterLink&#45;&gt;SharedModule</title>
<path fill="none" stroke="black" d="M430,-122.11C430,-141.34 430,-169 430,-169 430,-169 262.26,-169 262.26,-169"/>
<polygon fill="black" stroke="black" points="262.26,-165.5 252.26,-169 262.26,-172.5 262.26,-165.5"/>
</g>
<!-- RouterLinkActive -->
<g id="node6" class="node">
<title>RouterLinkActive</title>
<polygon fill="#8dd3c7" stroke="black" points="371.86,-122 368.86,-126 347.86,-126 344.86,-122 254.14,-122 254.14,-86 371.86,-86 371.86,-122"/>
<text text-anchor="middle" x="313" y="-99.8" font-family="Times,serif" font-size="14.00">RouterLinkActive</text>
</g>
<!-- RouterLinkActive&#45;&gt;SharedModule -->
<g id="edge5" class="edge">
<title>RouterLinkActive&#45;&gt;SharedModule</title>
<path fill="none" stroke="black" d="M253.96,-104C246.33,-104 241.11,-104 241.11,-104 241.11,-104 241.11,-140.89 241.11,-140.89"/>
<polygon fill="black" stroke="black" points="237.61,-140.89 241.11,-150.89 244.61,-140.89 237.61,-140.89"/>
</g>
</g>
</svg>
